<svg width="12" height="23" viewBox="0 0 12 23" fill="none" xmlns="http://www.w3.org/2000/svg">
<path d="M8.13794 4.71541C8.1688 4.68052 8.31309 4.56654 8.87975 4.56654L10.5982 4.56585C11.2026 4.56585 11.6941 4.07331 11.6941 3.46782V1.10252C11.6941 0.498069 11.2033 0.00552645 10.5999 0.00449022L8.83469 0C7.13144 0 6.11101 0.118984 5.07493 1.18403C4.0435 2.24424 3.49822 3.72428 3.49822 5.4639V7.66221H1.38709C0.782681 7.66221 0.291016 8.15476 0.291016 8.76024V11.376C0.291016 11.9814 0.782681 12.474 1.38709 12.474H3.49822V21.0944C3.49822 21.6998 3.98988 22.1924 4.5943 22.1924H6.93033C7.53474 22.1924 8.0264 21.6998 8.0264 21.0944V12.4742H10.607C11.2114 12.4742 11.7029 11.9814 11.7029 11.3763L11.7042 8.76042C11.7042 8.36269 11.4882 7.99466 11.1403 7.80003C10.9792 7.70988 10.7916 7.66221 10.5982 7.66221H8.0264V5.38842C8.0264 4.93664 8.08709 4.77309 8.13794 4.71541Z" fill="#BEE7FF"/>
</svg>
