<svg width="16" height="16" viewBox="0 0 16 16" fill="none" xmlns="http://www.w3.org/2000/svg">
<path d="M0.438371 6.78709C0.155706 6.02357 -0.048982 5.2438 0.0127494 4.4153C0.0517376 3.90521 0.24343 3.46984 0.617067 3.11245C1.02319 2.72906 1.40658 2.32618 1.80621 1.9363C2.32605 1.42296 2.97911 1.4262 3.49895 1.9363C3.8206 2.25146 4.13901 2.57311 4.45741 2.89476C4.76607 3.20342 5.07797 3.51208 5.38663 3.82398C5.92922 4.37307 5.93247 5.01312 5.38988 5.55896C5 5.94884 4.61336 6.34197 4.21698 6.72536C4.11301 6.82608 4.10327 6.91055 4.1585 7.03726C4.41842 7.66108 4.79531 8.21666 5.21768 8.7365C6.06892 9.78269 7.03064 10.7119 8.17754 11.4299C8.42447 11.5826 8.69413 11.6964 8.95081 11.8361C9.08402 11.9075 9.17174 11.8848 9.27896 11.7743C9.66559 11.3747 10.062 10.9816 10.4584 10.5884C10.9782 10.0751 11.628 10.0719 12.1478 10.5884C12.7847 11.2188 13.4182 11.8523 14.0485 12.4891C14.5781 13.022 14.5749 13.675 14.042 14.2111C13.6814 14.575 13.3012 14.9194 12.9633 15.2995C12.4695 15.8519 11.8457 16.0338 11.1374 15.9948C10.1042 15.9396 9.15225 15.5952 8.23277 15.1501C6.19239 14.1591 4.45091 12.7848 2.9921 11.0498C1.91343 9.76319 1.0232 8.36611 0.438371 6.78709ZM15.2442 7.95024C15.6623 7.95024 16.005 7.61025 15.9655 7.19403C15.6069 3.41321 12.5879 0.394161 8.80704 0.0355724C8.39082 -0.003904 8.05083 0.338814 8.05083 0.756906C8.05083 1.175 8.39128 1.50925 8.80651 1.55807C11.752 1.90437 14.0967 4.24905 14.443 7.19455C14.4918 7.60979 14.8261 7.95024 15.2442 7.95024ZM11.5695 7.19858C11.6558 7.60766 11.9864 7.95024 12.4045 7.95024C12.8226 7.95024 13.1674 7.60932 13.1059 7.19578C12.7765 4.98124 11.0198 3.22457 8.80528 2.89515C8.39174 2.83363 8.05083 3.17846 8.05083 3.59655C8.05083 4.01464 8.39341 4.34523 8.80249 4.43155C9.47704 4.57387 10.0963 4.90777 10.5948 5.40626C11.0933 5.90474 11.4272 6.52403 11.5695 7.19858Z" fill="url(#paint0_linear_8162_5540)"/>
<defs>
<linearGradient id="paint0_linear_8162_5540" x1="20.3805" y1="-15.0945" x2="-9.66381" y2="29.6553" gradientUnits="userSpaceOnUse">
<stop stop-color="#B1E2FF"/>
<stop offset="1" stop-color="#68C7FF"/>
</linearGradient>
</defs>
</svg>
